<svg width="25" height="24" viewBox="0 0 25 24" fill="none" xmlns="http://www.w3.org/2000/svg">
<path d="M10.2988 23H6.29883C3.5374 23 1.29883 20.7614 1.29883 18V6C1.29883 3.23858 3.5374 1 6.29883 1H10.2988" stroke="white" stroke-width="1.5" stroke-linecap="round"/>
<path fill-rule="evenodd" clip-rule="evenodd" d="M18.875 5.51988C18.6098 5.20167 18.1369 5.15868 17.8187 5.42385C17.5005 5.68903 17.4575 6.16195 17.7227 6.48016L21.6975 11.25L12.2988 11.25C11.8846 11.25 11.5488 11.5858 11.5488 12C11.5488 12.4142 11.8846 12.75 12.2988 12.75L21.6975 12.75L17.7227 17.5199C17.4575 17.8381 17.5005 18.311 17.8187 18.5762C18.1369 18.8414 18.6098 18.7984 18.875 18.4802L23.875 12.4802C24.1068 12.202 24.1068 11.798 23.875 11.5199L18.875 5.51988Z" fill="white"/>
</svg>
